# xmcd
#
# Track frame offsets:
#	150
#	13683
#	36062
#	51425
#	70159
#	82180
#	83080
#	104637
#	124037
#	145017
#	167046
#	181994
#	200388
#	213155
#	238203
#	256071
#
# Disc length: 3685 seconds
#
# Revision: 0
# Processed by: cddbd v1.5.2PL0 Copyright (c) Steve Scherf et al.
# Submitted via: FairStars CD Ripper 1.90
#
DISCID=de0e6310
DTITLE=Neal Ford - Nothin' Quite Like
DYEAR=2018
DGENRE=Country
TTITLE0=Dance Hall Saturday Night
TTITLE1=Yesterday and Good Times
TTITLE2=Sarah
TTITLE3=Streets of Baltimore
TTITLE4=My Old Guitar
TTITLE5=Intro
TTITLE6=Looking For A Memory
TTITLE7=Hard To Say Goodbye To Old Friends
TTITLE8=I'm Guilty
TTITLE9=My Usual High
TTITLE10=Wonderful, Wonderful You
TTITLE11=Women Talk
TTITLE12=How Empty Is Gone
TTITLE13=When Love Slips Away
TTITLE14=Path Of Least Resistance
TTITLE15=Sign Of The Times
EXTD=
EXTT0=
EXTT1=
EXTT2=
EXTT3=
EXTT4=
EXTT5=Bill Middleton
EXTT6=Bill Middleton
EXTT7=Jay Webber
EXTT8=Kim Meeks
EXTT9=Bill Middleton
EXTT10=
EXTT11=
EXTT12=
EXTT13=Neal Ford and Kim Meeks
EXTT14=
EXTT15=
PLAYORDER=
